<svg width="312" height="312" viewBox="0 0 312 312" fill="none" xmlns="http://www.w3.org/2000/svg">
<path d="M165.157 63.8098L34.6657 129.418C33.2169 130.146 31.5491 128.939 31.7893 127.335L44.7275 40.9641C45.0843 38.5817 47.0892 36.7925 49.4966 36.7079L140.734 33.5003C142.218 33.4481 143.649 34.0585 144.639 35.1662L166.047 59.1308C167.362 60.6032 166.921 62.9229 165.157 63.8098Z" fill="#3479BC"/>
<path d="M98.7913 100.992L35.5537 131.875C34.3464 132.465 34.0523 134.054 34.9686 135.036L55.112 156.639C57.3271 159.015 61.1837 158.681 62.9575 155.96L98.7913 100.992Z" fill="#26466D"/>
<path d="M208.735 56.8773C208.874 55.2616 210.776 54.4734 212.017 55.5179L278.818 111.776C280.66 113.327 281.134 115.973 279.945 118.068L234.893 197.471C234.16 198.763 232.89 199.661 231.429 199.924L199.802 205.611C197.859 205.96 196.113 204.369 196.281 202.402L208.735 56.8773Z" fill="#FCBB69"/>
<path d="M203.791 54.1931C205.108 53.9275 206.307 55.0094 206.177 56.3464L199.365 126.392L171.308 67.0769C169.919 64.1408 171.654 60.6806 174.838 60.0378L203.791 54.1931Z" fill="#E77342"/>
<path d="M55.5533 164.649C56.1707 162.774 58.4003 161.996 60.0503 163.08L182.115 243.285C183.47 244.175 183.257 246.224 181.749 246.818L100.48 278.798C98.2386 279.68 95.6867 278.839 94.4097 276.796L46.0132 199.386C45.2259 198.127 45.039 196.582 45.5035 195.171L55.5533 164.649Z" fill="#239650"/>
<path d="M190.954 205.512C194.198 205.688 196.416 208.861 195.466 211.967L186.828 240.213C186.435 241.498 184.912 242.038 183.798 241.287L125.434 201.963L190.954 205.512Z" fill="#256D45"/>
</svg>
