<svg width="684" height="175" viewBox="0 0 684 175" fill="none" xmlns="http://www.w3.org/2000/svg">
<path d="M95.2094 30.831L14.4048 71.432C13.8149 71.7284 13.1358 71.2368 13.2336 70.5842L21.3457 16.4648C21.491 15.4953 22.3074 14.7672 23.2877 14.7328L80.1149 12.7362C80.7193 12.715 81.3018 12.9634 81.7047 13.4141L95.5716 28.927C96.1073 29.5261 95.9277 30.4701 95.2094 30.831Z" fill="white"/>
<path d="M54.1204 53.7963L15.1508 72.8159C14.6591 73.0558 14.5394 73.7023 14.9125 74.1022L28.418 88.5772C29.32 89.5439 30.8904 89.4081 31.6127 88.3008L54.1204 53.7963Z" fill="white"/>
<path fill-rule="evenodd" clip-rule="evenodd" d="M121.089 26.1952C121.146 25.5378 121.92 25.217 122.426 25.642L164.309 60.8929C165.059 61.5243 165.252 62.6007 164.768 63.4533L136.708 112.878C136.409 113.404 135.892 113.769 135.297 113.876L114.811 117.557C114.02 117.699 113.309 117.052 113.377 116.252L121.089 26.1952Z" fill="white"/>
<path fill-rule="evenodd" clip-rule="evenodd" d="M118.547 25.2291C119.083 25.1209 119.572 25.5612 119.519 26.1054L115.322 69.2434L97.6975 32.0099C97.1321 30.8152 97.8387 29.4071 99.135 29.1455L118.547 25.2291Z" fill="white"/>
<path fill-rule="evenodd" clip-rule="evenodd" d="M28.0561 91.7602C28.3075 90.9971 29.215 90.6805 29.8869 91.1216L105.473 140.755C106.025 141.118 105.938 141.952 105.324 142.193L54.3694 162.232C53.4567 162.591 52.4176 162.248 51.8976 161.417L21.7537 113.233C21.4332 112.72 21.3574 112.092 21.5465 111.518L28.0561 91.7602Z" fill="white"/>
<path fill-rule="evenodd" clip-rule="evenodd" d="M111.487 117.428C112.808 117.499 113.711 118.791 113.324 120.055L107.533 138.981C107.373 139.504 106.753 139.723 106.299 139.418L70.3328 115.2L111.487 117.428Z" fill="white"/>
<path d="M195.88 91.0253V42.8748H222.168V51.794H205.067V60.5792H222.168V69.2972H205.067V82.039H222.168V91.0253H195.88ZM239.843 42.8748V82.3072H253.188V91.0253H230.655V42.8748H239.843ZM283.212 77.1435C284.33 79.2447 285.537 80.8319 286.833 81.9048C288.13 82.9331 289.583 83.4473 291.192 83.4473C292.757 83.4473 294.076 83.0225 295.149 82.1731C296.222 81.2789 296.758 80.2059 296.758 78.9541C296.758 78.2835 296.669 77.7023 296.49 77.2105C296.311 76.674 296.021 76.1599 295.618 75.6681C295.216 75.1316 294.702 74.5951 294.076 74.0586C293.495 73.4774 292.802 72.8515 291.997 72.1809C289.762 70.3031 287.75 68.6042 285.961 67.0842C284.218 65.5194 282.742 64.0217 281.535 62.591C280.328 61.1604 279.389 59.7521 278.719 58.3661C278.093 56.9355 277.78 55.4154 277.78 53.8059C277.78 52.107 278.115 50.5199 278.786 49.0445C279.501 47.5691 280.462 46.295 281.669 45.222C282.877 44.1043 284.285 43.2325 285.894 42.6066C287.504 41.9807 289.203 41.6677 290.991 41.6677C294.031 41.6677 296.624 42.4054 298.77 43.8807C300.961 45.3114 303.017 47.1444 304.94 49.3798L298.301 55.013C297.049 53.5824 295.819 52.4647 294.612 51.6599C293.405 50.8552 292.153 50.4528 290.857 50.4528C289.65 50.4528 288.666 50.7658 287.906 51.3917C287.146 52.0176 286.766 52.8223 286.766 53.8059C286.766 54.3424 286.878 54.8565 287.101 55.3483C287.37 55.8401 287.794 56.4213 288.376 57.0919C289.002 57.7179 289.806 58.4555 290.79 59.305C291.818 60.1097 293.092 61.1157 294.612 62.3228C296.267 63.664 297.764 64.9382 299.106 66.1453C300.491 67.3077 301.676 68.5148 302.66 69.7666C303.643 71.0185 304.403 72.3597 304.94 73.7904C305.476 75.1763 305.745 76.7634 305.745 78.5518C305.745 80.5636 305.387 82.419 304.672 84.1179C303.956 85.7721 302.95 87.2027 301.654 88.4099C300.357 89.617 298.793 90.5558 296.96 91.2265C295.171 91.8971 293.182 92.2324 290.991 92.2324C287.459 92.2324 284.441 91.3829 281.938 89.684C279.434 87.9404 277.288 85.3027 275.5 81.7707L283.212 77.1435ZM313.828 91.0253V42.8748H340.116V51.794H323.015V60.5792H340.116V69.2972H323.015V82.039H340.116V91.0253H313.828ZM346.945 91.0253L355.26 42.8748H364.247L375.379 76.5399C375.468 76.2269 375.558 75.914 375.647 75.601C375.781 75.2881 375.893 74.9751 375.983 74.6622L386.645 42.8748H395.498L403.612 91.0253H394.76L389.596 60.5121C389.462 60.9145 389.328 61.3168 389.194 61.7192C389.06 62.0769 388.926 62.4569 388.791 62.8593L379.336 91.0253H371.288L361.162 60.5121C361.072 60.9145 361.005 61.3168 360.961 61.7192C360.916 62.0769 360.849 62.4569 360.76 62.8593L355.864 91.0253H346.945ZM411.015 42.8748H420.404C422.863 42.8748 425.143 43.0984 427.244 43.5454C429.39 43.9925 431.223 44.7078 432.743 45.6914C434.308 46.675 435.515 47.9715 436.364 49.581C437.259 51.1458 437.706 53.0459 437.706 55.2813C437.706 57.2037 437.281 58.9026 436.432 60.378C435.582 61.8533 434.33 63.2393 432.676 64.5358C435.493 65.8771 437.594 67.5536 438.98 69.5655C440.411 71.5326 441.126 73.9915 441.126 76.9423C441.126 79.0882 440.723 81.033 439.919 82.7767C439.159 84.5203 438.086 85.9956 436.7 87.2027C435.314 88.4099 433.637 89.3487 431.67 90.0193C429.748 90.69 427.646 91.0253 425.366 91.0253H411.015V42.8748ZM420.203 69.9008V82.3072H423.287C426.193 82.3072 428.384 81.8825 429.859 81.033C431.38 80.1389 432.14 78.6635 432.14 76.607C432.14 74.461 431.335 72.8068 429.725 71.6444C428.116 70.482 425.702 69.9008 422.483 69.9008H420.203ZM420.203 51.5929V61.7192H422.214C424.36 61.7192 425.97 61.2721 427.043 60.378C428.161 59.4838 428.719 58.1873 428.719 56.4884C428.719 54.9236 428.205 53.7165 427.177 52.867C426.149 52.0176 424.606 51.5929 422.55 51.5929H420.203ZM462.256 42.8748C467.308 42.8748 471.287 44.0149 474.193 46.295C477.143 48.5751 478.619 52.0846 478.619 56.8237C478.619 63.1275 475.534 67.3971 469.364 69.6325L480.765 91.0253H470.772L459.976 70.6384H459.104V91.0253H449.916V42.8748H462.256ZM459.104 61.7192H463.329C467.531 61.7192 469.632 60.065 469.632 56.7566C469.632 53.4929 467.442 51.8611 463.06 51.8611H459.104V61.7192ZM501.305 42.8748H510.56L529.136 91.0253H519.613L515.925 81.1001H495.94L492.252 91.0253H482.729L501.305 42.8748ZM499.36 72.1138H512.571L505.932 54.4095L499.36 72.1138ZM534.66 42.8748H546.262C555.07 42.8748 561.709 44.8643 566.18 48.8433C570.65 52.8223 572.886 58.8355 572.886 66.883C572.886 71.2196 572.282 74.9304 571.075 78.0153C569.913 81.0554 568.191 83.559 565.911 85.5262C563.676 87.4486 560.904 88.8569 557.596 89.7511C554.332 90.6005 550.599 91.0253 546.396 91.0253H534.66V42.8748ZM543.848 51.8611V82.039H548.006C552.924 82.039 556.746 80.8319 559.473 78.4176C562.245 75.9587 563.631 72.0467 563.631 66.6818C563.631 61.8086 562.134 58.1202 559.138 55.6166C556.143 53.1129 552.074 51.8611 546.933 51.8611H543.848ZM579.139 66.883C579.139 63.3063 579.809 59.998 581.151 56.9578C582.492 53.873 584.303 51.2128 586.583 48.9774C588.863 46.6973 591.523 44.909 594.563 43.6125C597.603 42.316 600.822 41.6677 604.22 41.6677C607.528 41.6677 610.68 42.316 613.676 43.6125C616.716 44.8643 619.376 46.6303 621.656 48.9104C623.981 51.1458 625.814 53.8283 627.155 56.9578C628.541 60.0427 629.234 63.4181 629.234 67.0842C629.234 70.6161 628.586 73.9245 627.289 77.0093C625.993 80.0495 624.227 82.6872 621.991 84.9226C619.756 87.158 617.118 88.924 614.078 90.2205C611.038 91.5171 607.797 92.1653 604.354 92.1653C600.777 92.1653 597.447 91.5171 594.362 90.2205C591.322 88.8793 588.662 87.0686 586.381 84.7885C584.146 82.5084 582.38 79.8259 581.084 76.7411C579.787 73.6562 579.139 70.3702 579.139 66.883ZM588.393 67.0842C588.393 69.5431 588.818 71.7785 589.667 73.7904C590.517 75.7575 591.657 77.4564 593.088 78.8871C594.563 80.3177 596.262 81.4354 598.184 82.2402C600.107 83.0002 602.141 83.3802 604.287 83.3802C606.478 83.3802 608.512 82.9555 610.39 82.106C612.312 81.2566 613.966 80.0942 615.352 78.6188C616.783 77.1435 617.901 75.4222 618.705 73.455C619.555 71.4432 619.979 69.2972 619.979 67.0171C619.979 64.7817 619.577 62.6804 618.772 60.7133C618.012 58.7014 616.917 56.9355 615.486 55.4154C614.1 53.8953 612.424 52.6882 610.457 51.794C608.534 50.8999 606.433 50.4528 604.153 50.4528C602.007 50.4528 599.973 50.8552 598.05 51.6599C596.128 52.4647 594.451 53.6047 593.021 55.0801C591.59 56.5107 590.45 58.2543 589.6 60.3109C588.796 62.3228 588.393 64.5805 588.393 67.0842ZM650.147 42.8748C655.199 42.8748 659.178 44.0149 662.084 46.295C665.035 48.5751 666.51 52.0846 666.51 56.8237C666.51 63.1275 663.425 67.3971 657.255 69.6325L668.656 91.0253H658.664L647.867 70.6384H646.995V91.0253H637.807V42.8748H650.147ZM646.995 61.7192H651.22C655.422 61.7192 657.524 60.065 657.524 56.7566C657.524 53.4929 655.333 51.8611 650.952 51.8611H646.995V61.7192Z" fill="white"/>
<path d="M192.256 114.857C192.256 112.822 192.624 110.971 193.36 109.304C194.095 107.612 195.1 106.153 196.375 104.928C197.65 103.702 199.146 102.758 200.862 102.096C202.603 101.409 204.454 101.066 206.415 101.066C208.695 101.066 210.816 101.532 212.777 102.464C214.738 103.371 216.406 104.707 217.778 106.472L214.947 109.01C212.642 106.215 209.786 104.817 206.378 104.817C204.981 104.817 203.657 105.075 202.406 105.59C201.181 106.08 200.102 106.779 199.17 107.686C198.239 108.568 197.503 109.635 196.964 110.885C196.424 112.111 196.155 113.459 196.155 114.93C196.155 116.426 196.412 117.799 196.927 119.049C197.466 120.3 198.189 121.378 199.097 122.286C200.028 123.168 201.119 123.867 202.37 124.382C203.644 124.872 205.017 125.117 206.488 125.117C208.229 125.117 209.786 124.774 211.159 124.088C212.532 123.377 213.843 122.347 215.094 120.998L217.889 123.646C216.32 125.362 214.616 126.65 212.777 127.508C210.963 128.366 208.83 128.795 206.378 128.795C204.245 128.795 202.308 128.439 200.568 127.728C198.827 127.017 197.331 126.049 196.081 124.823C194.855 123.573 193.911 122.102 193.249 120.41C192.587 118.694 192.256 116.843 192.256 114.857ZM223.534 114.967C223.534 113.006 223.89 111.179 224.601 109.488C225.336 107.796 226.329 106.325 227.579 105.075C228.83 103.824 230.288 102.844 231.956 102.133C233.623 101.422 235.4 101.066 237.288 101.066C239.2 101.066 240.99 101.422 242.657 102.133C244.349 102.819 245.82 103.788 247.07 105.038C248.345 106.264 249.35 107.735 250.086 109.451C250.821 111.143 251.189 112.981 251.189 114.967C251.189 116.904 250.834 118.718 250.123 120.41C249.412 122.077 248.431 123.536 247.181 124.786C245.955 126.012 244.496 126.981 242.804 127.692C241.137 128.402 239.347 128.758 237.435 128.758C235.449 128.758 233.598 128.39 231.882 127.655C230.19 126.919 228.719 125.926 227.469 124.676C226.243 123.426 225.275 121.967 224.564 120.3C223.877 118.633 223.534 116.855 223.534 114.967ZM227.506 115.004C227.506 116.475 227.775 117.836 228.315 119.086C228.854 120.312 229.565 121.366 230.448 122.249C231.355 123.131 232.397 123.818 233.574 124.308C234.775 124.799 236.038 125.044 237.362 125.044C238.735 125.044 240.009 124.786 241.186 124.271C242.388 123.757 243.429 123.058 244.312 122.175C245.219 121.268 245.93 120.202 246.445 118.976C246.96 117.725 247.217 116.377 247.217 114.93C247.217 113.484 246.96 112.148 246.445 110.922C245.93 109.696 245.219 108.63 244.312 107.723C243.405 106.815 242.351 106.104 241.149 105.59C239.973 105.075 238.698 104.817 237.325 104.817C236.001 104.817 234.751 105.062 233.574 105.553C232.397 106.043 231.355 106.742 230.448 107.649C229.541 108.532 228.817 109.598 228.278 110.848C227.763 112.099 227.506 113.484 227.506 115.004ZM261.114 101.728H263.908L271.852 120.778C271.901 120.949 271.962 121.109 272.036 121.256C272.109 121.403 272.171 121.562 272.22 121.734C272.269 121.562 272.33 121.403 272.404 121.256C272.477 121.084 272.538 120.913 272.587 120.741L280.494 101.728H283.252L287.371 128.133H283.62L280.899 110.37L273.507 128.133H270.896L263.908 111.474L263.467 110.334C263.418 110.53 263.381 110.726 263.357 110.922C263.332 111.118 263.296 111.314 263.246 111.51L260.709 128.133H256.921L261.114 101.728ZM294.341 101.728H298.239V119.527C298.239 121.195 298.656 122.531 299.49 123.536C300.323 124.541 301.549 125.044 303.167 125.044C304.099 125.044 304.871 124.897 305.484 124.602C306.121 124.308 306.636 123.904 307.029 123.389C307.421 122.849 307.703 122.224 307.874 121.513C308.046 120.802 308.132 120.03 308.132 119.196V101.728H312.03V119.196C312.03 120.667 311.822 121.991 311.405 123.168C311.013 124.345 310.436 125.35 309.676 126.184C308.916 127.017 307.985 127.655 306.882 128.096C305.803 128.537 304.577 128.758 303.204 128.758C301.782 128.758 300.519 128.537 299.416 128.096C298.313 127.63 297.381 126.981 296.621 126.147C295.886 125.289 295.322 124.259 294.93 123.058C294.537 121.832 294.341 120.471 294.341 118.976V101.728ZM321.13 128.133V101.728H323.925L338.194 120.484V101.728H342.092V128.133H339.297L325.029 109.451V128.133H321.13ZM351.223 101.728H355.121V128.133H351.223V101.728ZM364.257 101.728H370.692C375.62 101.728 379.384 102.844 381.982 105.075C384.581 107.281 385.881 110.603 385.881 115.041C385.881 119.527 384.655 122.837 382.203 124.97C379.751 127.079 376.123 128.133 371.318 128.133H364.257V101.728ZM368.155 105.516V124.345H371.796C374.983 124.345 377.459 123.609 379.224 122.138C381.014 120.643 381.909 118.265 381.909 115.004C381.909 113.386 381.651 111.976 381.137 110.775C380.622 109.574 379.886 108.593 378.93 107.833C377.974 107.048 376.809 106.472 375.436 106.104C374.088 105.712 372.58 105.516 370.913 105.516H368.155ZM400.647 101.728H403.589L414.768 128.133H410.723L407.818 121.146H396.418L393.476 128.133H389.43L400.647 101.728ZM397.999 117.394H406.237L402.118 107.502L397.999 117.394ZM420.886 101.728H427.322C432.25 101.728 436.013 102.844 438.612 105.075C441.211 107.281 442.51 110.603 442.51 115.041C442.51 119.527 441.284 122.837 438.833 124.97C436.381 127.079 432.752 128.133 427.947 128.133H420.886V101.728ZM424.785 105.516V124.345H428.425C431.612 124.345 434.089 123.609 435.854 122.138C437.644 120.643 438.538 118.265 438.538 115.004C438.538 113.386 438.281 111.976 437.766 110.775C437.251 109.574 436.516 108.593 435.56 107.833C434.604 107.048 433.439 106.472 432.066 106.104C430.718 105.712 429.21 105.516 427.543 105.516H424.785ZM462.368 114.857C462.368 112.822 462.736 110.971 463.471 109.304C464.207 107.612 465.212 106.153 466.487 104.928C467.762 103.702 469.257 102.758 470.973 102.096C472.714 101.409 474.565 101.066 476.526 101.066C478.807 101.066 480.927 101.532 482.889 102.464C484.85 103.371 486.517 104.707 487.89 106.472L485.058 109.01C482.754 106.215 479.898 104.817 476.49 104.817C475.092 104.817 473.768 105.075 472.518 105.59C471.292 106.08 470.213 106.779 469.282 107.686C468.35 108.568 467.615 109.635 467.075 110.885C466.536 112.111 466.266 113.459 466.266 114.93C466.266 116.426 466.524 117.799 467.038 119.049C467.578 120.3 468.301 121.378 469.208 122.286C470.14 123.168 471.231 123.867 472.481 124.382C473.756 124.872 475.129 125.117 476.6 125.117C478.341 125.117 479.898 124.774 481.27 124.088C482.643 123.377 483.955 122.347 485.205 120.998L488 123.646C486.431 125.362 484.727 126.65 482.889 127.508C481.074 128.366 478.941 128.795 476.49 128.795C474.357 128.795 472.42 128.439 470.679 127.728C468.939 127.017 467.443 126.049 466.193 124.823C464.967 123.573 464.023 122.102 463.361 120.41C462.699 118.694 462.368 116.843 462.368 114.857ZM502.927 101.728C505.869 101.728 508.1 102.366 509.62 103.64C511.165 104.891 511.937 106.705 511.937 109.083C511.937 111.143 511.312 112.761 510.062 113.938C508.811 115.09 507.095 115.825 504.913 116.144L512.71 128.133H508.297L500.758 116.438H499.691V128.133H495.793V101.728H502.927ZM499.691 112.65H503.185C504.729 112.65 505.918 112.368 506.752 111.805C507.61 111.216 508.039 110.297 508.039 109.046C508.039 107.968 507.659 107.11 506.899 106.472C506.164 105.835 504.999 105.516 503.405 105.516H499.691V112.65ZM520.103 101.728H524.002V128.133H520.103V101.728ZM531.078 123.131L534.351 121.146C535.773 123.744 537.415 125.044 539.279 125.044C539.818 125.044 540.321 124.958 540.786 124.786C541.277 124.59 541.694 124.345 542.037 124.051C542.38 123.732 542.65 123.364 542.846 122.947C543.066 122.531 543.177 122.089 543.177 121.624C543.177 121.133 543.091 120.692 542.919 120.3C542.748 119.883 542.466 119.454 542.074 119.013C541.681 118.571 541.191 118.105 540.603 117.615C540.014 117.1 539.291 116.5 538.433 115.813C537.477 115.029 536.631 114.305 535.895 113.643C535.16 112.981 534.535 112.332 534.02 111.694C533.529 111.057 533.149 110.407 532.88 109.745C532.635 109.059 532.512 108.311 532.512 107.502C532.512 106.57 532.684 105.712 533.027 104.928C533.395 104.143 533.885 103.469 534.498 102.905C535.135 102.317 535.871 101.863 536.704 101.544C537.538 101.226 538.421 101.066 539.352 101.066C540.186 101.066 540.946 101.177 541.632 101.397C542.319 101.618 542.956 101.924 543.545 102.317C544.133 102.684 544.685 103.138 545.199 103.677C545.714 104.192 546.205 104.744 546.67 105.332L543.728 107.723C543.017 106.864 542.319 106.178 541.632 105.663C540.97 105.148 540.186 104.891 539.279 104.891C538.396 104.891 537.697 105.148 537.182 105.663C536.668 106.153 536.41 106.742 536.41 107.428C536.41 108.164 536.692 108.863 537.256 109.525C537.82 110.186 538.751 111.02 540.051 112.025C541.081 112.81 542.024 113.558 542.883 114.269C543.741 114.955 544.476 115.666 545.089 116.401C545.727 117.137 546.217 117.922 546.56 118.755C546.903 119.564 547.075 120.471 547.075 121.476C547.075 122.506 546.879 123.462 546.487 124.345C546.119 125.228 545.592 126 544.905 126.662C544.219 127.324 543.397 127.839 542.441 128.206C541.51 128.599 540.468 128.795 539.315 128.795C537.428 128.795 535.822 128.317 534.498 127.361C533.198 126.404 532.058 124.995 531.078 123.131ZM551.999 101.728H566.562V105.516H561.23V128.133H557.332V105.516H551.999V101.728ZM573.103 101.728H577.001V128.133H573.103V101.728ZM594.338 101.728H597.28L608.459 128.133H604.414L601.509 121.146H590.108L587.166 128.133H583.121L594.338 101.728ZM591.69 117.394H599.927L595.809 107.502L591.69 117.394ZM614.577 128.133V101.728H617.372L631.641 120.484V101.728H635.539V128.133H632.744L618.475 109.451V128.133H614.577ZM652.871 101.728H655.813L666.992 128.133H662.947L660.042 121.146H648.641L645.699 128.133H641.654L652.871 101.728ZM650.223 117.394H658.46L654.342 107.502L650.223 117.394Z" fill="white"/>
</svg>
