<svg width="512" height="512" viewBox="0 0 512 512" fill="none" xmlns="http://www.w3.org/2000/svg">
<path d="M273.598 91.5378L39.075 209.204C37.3628 210.063 35.3918 208.639 35.6757 206.747L59.2198 49.903C59.6415 47.0933 62.0109 44.9832 64.856 44.8834L229.788 39.0972C231.542 39.0356 233.233 39.7555 234.403 41.0618L274.649 86.0197C276.204 87.7562 275.682 90.4918 273.598 91.5378Z" fill="#26466D"/>
<path d="M154.343 158.094L41.2398 213.215C39.8129 213.91 39.4654 215.784 40.5483 216.943L79.746 258.893C82.3638 261.695 86.9217 261.301 89.018 258.092L154.343 158.094Z" fill="#3479BC"/>
<path fill-rule="evenodd" clip-rule="evenodd" d="M348.71 78.1028C348.874 76.1975 351.122 75.2678 352.588 76.4996L474.148 178.661C476.326 180.491 476.886 183.61 475.481 186.081L394.04 329.32C393.173 330.843 391.672 331.903 389.945 332.213L330.488 342.88C328.192 343.292 326.129 341.417 326.327 339.097L348.71 78.1028Z" fill="#FCBB69"/>
<path fill-rule="evenodd" clip-rule="evenodd" d="M341.332 75.3028C342.888 74.9893 344.306 76.2653 344.152 77.8423L331.971 202.861L280.819 94.9544C279.178 91.4919 281.229 87.4111 284.991 86.6529L341.332 75.3028Z" fill="#E77342"/>
<path fill-rule="evenodd" clip-rule="evenodd" d="M78.696 268.117C79.4257 265.906 82.0596 264.988 84.0096 266.267L303.387 410.111C304.988 411.161 304.737 413.578 302.954 414.278L155.066 472.353C152.417 473.393 149.402 472.4 147.892 469.992L60.4044 330.348C59.4741 328.862 59.2542 327.041 59.8031 325.378L78.696 268.117Z" fill="#239650"/>
<path fill-rule="evenodd" clip-rule="evenodd" d="M320.842 342.505C324.675 342.713 327.296 346.455 326.174 350.118L309.366 404.968C308.902 406.484 307.102 407.12 305.785 406.235L201.397 336.05L320.842 342.505Z" fill="#256D45"/>
</svg>
