<svg width="448" height="117" viewBox="0 0 448 117" fill="none" xmlns="http://www.w3.org/2000/svg">
<path d="M130.494 43.534H142.963V48.196H130.494V43.534ZM130.938 54.19H145.035V59H124.981V33.1H144.554V37.91H130.938V54.19ZM149.805 59V33.1H155.799V54.116H168.786V59H149.805ZM191.123 59.444C189.051 59.444 187.066 59.1727 185.166 58.63C183.267 58.0627 181.738 57.335 180.578 56.447L182.613 51.933C183.723 52.7223 185.031 53.376 186.535 53.894C188.065 54.3873 189.606 54.634 191.16 54.634C192.344 54.634 193.294 54.523 194.009 54.301C194.749 54.0543 195.292 53.7213 195.637 53.302C195.983 52.8827 196.155 52.4017 196.155 51.859C196.155 51.1683 195.884 50.6257 195.341 50.231C194.799 49.8117 194.083 49.4787 193.195 49.232C192.307 48.9607 191.321 48.714 190.235 48.492C189.175 48.2453 188.102 47.9493 187.016 47.604C185.956 47.2587 184.981 46.8147 184.093 46.272C183.205 45.7293 182.478 45.014 181.91 44.126C181.368 43.238 181.096 42.1033 181.096 40.722C181.096 39.242 181.491 37.8977 182.28 36.689C183.094 35.4557 184.303 34.4813 185.906 33.766C187.534 33.026 189.569 32.656 192.011 32.656C193.639 32.656 195.243 32.8533 196.821 33.248C198.4 33.618 199.794 34.1853 201.002 34.95L199.152 39.501C197.944 38.8103 196.735 38.3047 195.526 37.984C194.318 37.6387 193.134 37.466 191.974 37.466C190.815 37.466 189.865 37.6017 189.125 37.873C188.385 38.1443 187.855 38.502 187.534 38.946C187.214 39.3653 187.053 39.8587 187.053 40.426C187.053 41.092 187.325 41.6347 187.867 42.054C188.41 42.4487 189.125 42.7693 190.013 43.016C190.901 43.2627 191.876 43.5093 192.936 43.756C194.022 44.0027 195.095 44.2863 196.155 44.607C197.241 44.9277 198.227 45.3593 199.115 45.902C200.003 46.4447 200.719 47.16 201.261 48.048C201.829 48.936 202.112 50.0583 202.112 51.415C202.112 52.8703 201.705 54.2023 200.891 55.411C200.077 56.6197 198.856 57.594 197.228 58.334C195.625 59.074 193.59 59.444 191.123 59.444ZM211.721 43.534H224.19V48.196H211.721V43.534ZM212.165 54.19H226.262V59H206.208V33.1H225.781V37.91H212.165V54.19ZM231.031 59V33.1H235.989L247.015 51.378H244.388L255.229 33.1H260.15L260.224 59H254.6L254.563 41.721H255.599L246.941 56.262H244.24L235.397 41.721H236.655V59H231.031ZM266.369 59V33.1H279.023C282.279 33.1 284.721 33.7167 286.349 34.95C288.002 36.1833 288.828 37.8113 288.828 39.834C288.828 41.1907 288.495 42.3747 287.829 43.386C287.163 44.3727 286.25 45.1373 285.091 45.68C283.932 46.2227 282.6 46.494 281.095 46.494L281.798 44.977C283.426 44.977 284.869 45.2483 286.127 45.791C287.385 46.309 288.359 47.086 289.05 48.122C289.765 49.158 290.123 50.4283 290.123 51.933C290.123 54.153 289.247 55.892 287.496 57.15C285.745 58.3833 283.167 59 279.763 59H266.369ZM272.326 54.486H279.319C280.873 54.486 282.045 54.2393 282.834 53.746C283.648 53.228 284.055 52.414 284.055 51.304C284.055 50.2187 283.648 49.417 282.834 48.899C282.045 48.3563 280.873 48.085 279.319 48.085H271.882V43.719H278.283C279.738 43.719 280.848 43.4723 281.613 42.979C282.402 42.461 282.797 41.684 282.797 40.648C282.797 39.6367 282.402 38.8843 281.613 38.391C280.848 37.873 279.738 37.614 278.283 37.614H272.326V54.486ZM294.661 59V33.1H305.872C308.191 33.1 310.189 33.4823 311.866 34.247C313.543 34.987 314.838 36.06 315.751 37.466C316.664 38.872 317.12 40.5493 317.12 42.498C317.12 44.422 316.664 46.087 315.751 47.493C314.838 48.8743 313.543 49.935 311.866 50.675C310.189 51.415 308.191 51.785 305.872 51.785H297.991L300.655 49.158V59H294.661ZM311.126 59L304.651 49.602H311.052L317.601 59H311.126ZM300.655 49.824L297.991 47.012H305.539C307.389 47.012 308.77 46.6173 309.683 45.828C310.596 45.014 311.052 43.904 311.052 42.498C311.052 41.0673 310.596 39.9573 309.683 39.168C308.77 38.3787 307.389 37.984 305.539 37.984H297.991L300.655 35.135V49.824ZM318.465 59L330.009 33.1H335.929L347.51 59H341.22L331.748 36.134H334.116L324.607 59H318.465ZM324.237 53.45L325.828 48.899H339.148L340.776 53.45H324.237ZM350.197 59V33.1H361.963C364.775 33.1 367.254 33.6427 369.4 34.728C371.546 35.7887 373.224 37.281 374.432 39.205C375.641 41.129 376.245 43.4107 376.245 46.05C376.245 48.6647 375.641 50.9463 374.432 52.895C373.224 54.819 371.546 56.3237 369.4 57.409C367.254 58.4697 364.775 59 361.963 59H350.197ZM356.191 54.079H361.667C363.394 54.079 364.886 53.7583 366.144 53.117C367.427 52.451 368.414 51.5137 369.104 50.305C369.82 49.0963 370.177 47.678 370.177 46.05C370.177 44.3973 369.82 42.979 369.104 41.795C368.414 40.5863 367.427 39.6613 366.144 39.02C364.886 38.354 363.394 38.021 361.667 38.021H356.191V54.079ZM393.346 59.444C391.298 59.444 389.399 59.111 387.648 58.445C385.921 57.779 384.416 56.8417 383.134 55.633C381.876 54.4243 380.889 53.006 380.174 51.378C379.483 49.75 379.138 47.974 379.138 46.05C379.138 44.126 379.483 42.35 380.174 40.722C380.889 39.094 381.888 37.6757 383.171 36.467C384.453 35.2583 385.958 34.321 387.685 33.655C389.411 32.989 391.286 32.656 393.309 32.656C395.356 32.656 397.231 32.989 398.933 33.655C400.659 34.321 402.152 35.2583 403.41 36.467C404.692 37.6757 405.691 39.094 406.407 40.722C407.122 42.3253 407.48 44.1013 407.48 46.05C407.48 47.974 407.122 49.7623 406.407 51.415C405.691 53.043 404.692 54.4613 403.41 55.67C402.152 56.854 400.659 57.779 398.933 58.445C397.231 59.111 395.368 59.444 393.346 59.444ZM393.309 54.338C394.468 54.338 395.529 54.1407 396.491 53.746C397.477 53.3513 398.341 52.784 399.081 52.044C399.821 51.304 400.388 50.4283 400.783 49.417C401.202 48.4057 401.412 47.2833 401.412 46.05C401.412 44.8167 401.202 43.6943 400.783 42.683C400.388 41.6717 399.821 40.796 399.081 40.056C398.365 39.316 397.514 38.7487 396.528 38.354C395.541 37.9593 394.468 37.762 393.309 37.762C392.149 37.762 391.076 37.9593 390.09 38.354C389.128 38.7487 388.277 39.316 387.537 40.056C386.797 40.796 386.217 41.6717 385.798 42.683C385.403 43.6943 385.206 44.8167 385.206 46.05C385.206 47.2587 385.403 48.381 385.798 49.417C386.217 50.4283 386.784 51.304 387.5 52.044C388.24 52.784 389.103 53.3513 390.09 53.746C391.076 54.1407 392.149 54.338 393.309 54.338ZM411.984 59V33.1H423.195C425.514 33.1 427.512 33.4823 429.189 34.247C430.867 34.987 432.162 36.06 433.074 37.466C433.987 38.872 434.443 40.5493 434.443 42.498C434.443 44.422 433.987 46.087 433.074 47.493C432.162 48.8743 430.867 49.935 429.189 50.675C427.512 51.415 425.514 51.785 423.195 51.785H415.314L417.978 49.158V59H411.984ZM428.449 59L421.974 49.602H428.375L434.924 59H428.449ZM417.978 49.824L415.314 47.012H422.862C424.712 47.012 426.094 46.6173 427.006 45.828C427.919 45.014 428.375 43.904 428.375 42.498C428.375 41.0673 427.919 39.9573 427.006 39.168C426.094 38.3787 424.712 37.984 422.862 37.984H415.314L417.978 35.135V49.824Z" fill="white"/>
<path d="M132.431 83.151C131.106 83.151 129.881 82.9329 128.756 82.4966C127.632 82.0436 126.659 81.4143 125.837 80.6089C125.015 79.8035 124.369 78.8555 123.899 77.7648C123.446 76.6741 123.219 75.4828 123.219 74.1908C123.219 72.8987 123.446 71.7074 123.899 70.6167C124.369 69.526 125.015 68.578 125.837 67.7726C126.676 66.9672 127.657 66.3463 128.782 65.9101C129.906 65.457 131.131 65.2305 132.456 65.2305C133.732 65.2305 134.931 65.4486 136.056 65.8849C137.18 66.3044 138.128 66.942 138.9 67.7978L137.717 68.9807C136.995 68.2424 136.198 67.7139 135.326 67.395C134.453 67.0595 133.513 66.8917 132.507 66.8917C131.45 66.8917 130.468 67.0762 129.562 67.4454C128.656 67.7978 127.867 68.3095 127.196 68.9807C126.525 69.6351 125.996 70.407 125.61 71.2963C125.241 72.1688 125.057 73.1336 125.057 74.1908C125.057 75.2479 125.241 76.2211 125.61 77.1104C125.996 77.9829 126.525 78.7548 127.196 79.426C127.867 80.0804 128.656 80.5921 129.562 80.9613C130.468 81.3137 131.45 81.4898 132.507 81.4898C133.513 81.4898 134.453 81.322 135.326 80.9865C136.198 80.6509 136.995 80.1139 137.717 79.3756L138.9 80.5586C138.128 81.4143 137.18 82.0603 136.056 82.4966C134.931 82.9329 133.723 83.151 132.431 83.151ZM150.203 83.151C148.878 83.151 147.644 82.9329 146.503 82.4966C145.379 82.0436 144.398 81.4143 143.559 80.6089C142.736 79.7867 142.09 78.8387 141.621 77.7648C141.167 76.6741 140.941 75.4828 140.941 74.1908C140.941 72.8987 141.167 71.7158 141.621 70.6419C142.09 69.5512 142.736 68.6032 143.559 67.7978C144.398 66.9756 145.379 66.3463 146.503 65.9101C147.628 65.457 148.861 65.2305 150.203 65.2305C151.529 65.2305 152.754 65.457 153.878 65.9101C155.002 66.3463 155.975 66.9672 156.798 67.7726C157.637 68.578 158.283 69.526 158.736 70.6167C159.205 71.7074 159.44 72.8987 159.44 74.1908C159.44 75.4828 159.205 76.6741 158.736 77.7648C158.283 78.8555 157.637 79.8035 156.798 80.6089C155.975 81.4143 155.002 82.0436 153.878 82.4966C152.754 82.9329 151.529 83.151 150.203 83.151ZM150.203 81.4898C151.26 81.4898 152.234 81.3137 153.123 80.9613C154.029 80.5921 154.809 80.0804 155.464 79.426C156.135 78.7548 156.655 77.9829 157.024 77.1104C157.393 76.2211 157.578 75.2479 157.578 74.1908C157.578 73.1336 157.393 72.1688 157.024 71.2963C156.655 70.407 156.135 69.6351 155.464 68.9807C154.809 68.3095 154.029 67.7978 153.123 67.4454C152.234 67.0762 151.26 66.8917 150.203 66.8917C149.146 66.8917 148.165 67.0762 147.258 67.4454C146.352 67.7978 145.564 68.3095 144.893 68.9807C144.238 69.6351 143.718 70.407 143.332 71.2963C142.963 72.1688 142.778 73.1336 142.778 74.1908C142.778 75.2311 142.963 76.1959 143.332 77.0852C143.718 77.9745 144.238 78.7548 144.893 79.426C145.564 80.0804 146.352 80.5921 147.258 80.9613C148.165 81.3137 149.146 81.4898 150.203 81.4898ZM163.615 83V65.3815H165.15L173.205 79.1239H172.399L180.378 65.3815H181.913V83H180.126V68.1753H180.554L173.205 80.7599H172.324L164.924 68.1753H165.402V83H163.615ZM194.751 83.151C192.503 83.151 190.733 82.505 189.441 81.213C188.149 79.921 187.503 78.0081 187.503 75.4744V65.3815H189.365V75.3989C189.365 77.4795 189.835 79.0149 190.775 80.0049C191.714 80.9948 193.04 81.4898 194.751 81.4898C196.48 81.4898 197.814 80.9948 198.753 80.0049C199.693 79.0149 200.163 77.4795 200.163 75.3989V65.3815H201.975V75.4744C201.975 78.0081 201.329 79.921 200.037 81.213C198.762 82.505 197 83.151 194.751 83.151ZM207.588 83V65.3815H209.123L221.28 80.6844H220.474V65.3815H222.312V83H220.776L208.645 67.6971H209.45V83H207.588ZM228.062 83V65.3815H229.925V83H228.062ZM235.657 83V65.3815H242.831C244.71 65.3815 246.354 65.759 247.764 66.5141C249.19 67.2524 250.297 68.2844 251.086 69.6099C251.875 70.9355 252.269 72.4625 252.269 74.1908C252.269 75.919 251.875 77.446 251.086 78.7716C250.297 80.0971 249.19 81.1375 247.764 81.8926C246.354 82.6309 244.71 83 242.831 83H235.657ZM237.52 81.3892H242.73C244.29 81.3892 245.641 81.0871 246.782 80.4831C247.94 79.8622 248.838 79.0149 249.475 77.941C250.113 76.8503 250.432 75.6002 250.432 74.1908C250.432 72.7645 250.113 71.5144 249.475 70.4405C248.838 69.3666 247.94 68.5277 246.782 67.9236C245.641 67.3028 244.29 66.9923 242.73 66.9923H237.52V81.3892ZM253.387 83L261.441 65.3815H263.278L271.332 83H269.369L261.969 66.4638H262.724L255.325 83H253.387ZM256.558 78.2933L257.112 76.7832H267.356L267.909 78.2933H256.558ZM274.247 83V65.3815H281.42C283.299 65.3815 284.944 65.759 286.353 66.5141C287.78 67.2524 288.887 68.2844 289.676 69.6099C290.464 70.9355 290.859 72.4625 290.859 74.1908C290.859 75.919 290.464 77.446 289.676 78.7716C288.887 80.0971 287.78 81.1375 286.353 81.8926C284.944 82.6309 283.299 83 281.42 83H274.247ZM276.109 81.3892H281.319C282.88 81.3892 284.231 81.0871 285.372 80.4831C286.529 79.8622 287.427 79.0149 288.065 77.941C288.702 76.8503 289.021 75.6002 289.021 74.1908C289.021 72.7645 288.702 71.5144 288.065 70.4405C287.427 69.3666 286.529 68.5277 285.372 67.9236C284.231 67.3028 282.88 66.9923 281.319 66.9923H276.109V81.3892ZM309.28 83.151C307.954 83.151 306.729 82.9329 305.605 82.4966C304.481 82.0436 303.508 81.4143 302.685 80.6089C301.863 79.8035 301.217 78.8555 300.747 77.7648C300.294 76.6741 300.068 75.4828 300.068 74.1908C300.068 72.8987 300.294 71.7074 300.747 70.6167C301.217 69.526 301.863 68.578 302.685 67.7726C303.524 66.9672 304.506 66.3463 305.63 65.9101C306.754 65.457 307.979 65.2305 309.305 65.2305C310.58 65.2305 311.78 65.4486 312.904 65.8849C314.028 66.3044 314.976 66.942 315.748 67.7978L314.565 68.9807C313.844 68.2424 313.047 67.7139 312.174 67.395C311.302 67.0595 310.362 66.8917 309.355 66.8917C308.298 66.8917 307.317 67.0762 306.41 67.4454C305.504 67.7978 304.716 68.3095 304.045 68.9807C303.373 69.6351 302.845 70.407 302.459 71.2963C302.09 72.1688 301.905 73.1336 301.905 74.1908C301.905 75.2479 302.09 76.2211 302.459 77.1104C302.845 77.9829 303.373 78.7548 304.045 79.426C304.716 80.0804 305.504 80.5921 306.41 80.9613C307.317 81.3137 308.298 81.4898 309.355 81.4898C310.362 81.4898 311.302 81.322 312.174 80.9865C313.047 80.6509 313.844 80.1139 314.565 79.3756L315.748 80.5586C314.976 81.4143 314.028 82.0603 312.904 82.4966C311.78 82.9329 310.572 83.151 309.28 83.151ZM319.719 83V65.3815H326.313C327.806 65.3815 329.09 65.6248 330.164 66.1114C331.238 66.5812 332.06 67.2692 332.631 68.1753C333.218 69.0646 333.511 70.1469 333.511 71.4221C333.511 72.6638 333.218 73.7377 332.631 74.6438C332.06 75.5331 331.238 76.2211 330.164 76.7077C329.09 77.1775 327.806 77.4124 326.313 77.4124H320.751L321.581 76.5567V83H319.719ZM331.75 83L327.219 76.607H329.233L333.788 83H331.75ZM321.581 76.7077L320.751 75.8268H326.263C328.025 75.8268 329.359 75.4408 330.265 74.669C331.188 73.8971 331.649 72.8148 331.649 71.4221C331.649 70.0127 331.188 68.922 330.265 68.1501C329.359 67.3783 328.025 66.9923 326.263 66.9923H320.751L321.581 66.1114V76.7077ZM337.907 83V65.3815H339.77V83H337.907ZM350.36 83.151C349.051 83.151 347.793 82.9413 346.585 82.5218C345.393 82.0855 344.471 81.5318 343.816 80.8606L344.546 79.426C345.167 80.03 345.997 80.5418 347.038 80.9613C348.095 81.364 349.202 81.5654 350.36 81.5654C351.468 81.5654 352.365 81.4311 353.053 81.1626C353.758 80.8774 354.27 80.4999 354.589 80.03C354.924 79.5602 355.092 79.04 355.092 78.4695C355.092 77.7816 354.891 77.2278 354.488 76.8084C354.102 76.3889 353.59 76.0617 352.953 75.8268C352.315 75.5751 351.61 75.3569 350.838 75.1724C350.067 74.9878 349.295 74.7948 348.523 74.5935C347.751 74.3753 347.038 74.0901 346.383 73.7377C345.746 73.3853 345.226 72.9239 344.823 72.3534C344.437 71.7661 344.244 71.0026 344.244 70.063C344.244 69.1905 344.471 68.3934 344.924 67.6719C345.393 66.9336 346.107 66.3463 347.063 65.9101C348.019 65.457 349.244 65.2305 350.738 65.2305C351.728 65.2305 352.709 65.3731 353.683 65.6584C354.656 65.9268 355.495 66.3044 356.199 66.791L355.57 68.276C354.815 67.7726 354.01 67.4034 353.154 67.1685C352.315 66.9336 351.501 66.8162 350.713 66.8162C349.655 66.8162 348.783 66.9588 348.095 67.244C347.407 67.5293 346.895 67.9152 346.56 68.4018C346.241 68.8716 346.081 69.4086 346.081 70.0127C346.081 70.7006 346.274 71.2543 346.66 71.6738C347.063 72.0933 347.583 72.4205 348.221 72.6554C348.875 72.8903 349.588 73.1001 350.36 73.2847C351.132 73.4692 351.895 73.6706 352.651 73.8887C353.422 74.1069 354.127 74.3921 354.765 74.7445C355.419 75.0801 355.939 75.5331 356.325 76.1036C356.728 76.6741 356.929 77.4208 356.929 78.3437C356.929 79.1994 356.694 79.9965 356.225 80.7348C355.755 81.4563 355.033 82.0436 354.06 82.4966C353.104 82.9329 351.87 83.151 350.36 83.151ZM364.165 83V66.9923H357.973V65.3815H372.219V66.9923H366.027V83H364.165ZM375.194 83V65.3815H377.057V83H375.194ZM379.97 83L388.025 65.3815H389.862L397.916 83H395.953L388.553 66.4638H389.308L381.908 83H379.97ZM383.142 78.2933L383.695 76.7832H393.939L394.493 78.2933H383.142ZM400.831 83V65.3815H402.366L414.523 80.6844H413.717V65.3815H415.555V83H414.019L401.888 67.6971H402.693V83H400.831ZM418.486 83L426.54 65.3815H428.378L436.432 83H434.469L427.069 66.4638H427.824L420.424 83H418.486ZM421.658 78.2933L422.211 76.7832H432.455L433.009 78.2933H421.658Z" fill="white"/>
<path d="M61.4314 24.5136L12.1575 49.2874C11.5792 49.5782 10.9134 49.096 11.0093 48.4558L15.8845 15.9104C16.027 14.9593 16.8273 14.245 17.7884 14.2112L52.2062 13.0012C52.7987 12.9804 53.3699 13.2241 53.7649 13.6663L61.7865 22.6457C62.3117 23.2335 62.1356 24.1596 61.4314 24.5136Z" fill="white"/>
<path d="M36.3708 38.5581L12.4729 50.2292C11.9909 50.4645 11.8735 51.0988 12.2393 51.4911L19.7403 59.5356C20.6246 60.484 22.1642 60.3507 22.8724 59.2644L36.3708 38.5581Z" fill="white"/>
<path d="M77.9992 21.9311C78.0544 21.2861 78.814 20.9714 79.3091 21.3884L104.48 42.5869C105.216 43.2064 105.405 44.2623 104.931 45.0988L87.9355 75.0523C87.6429 75.568 87.1358 75.9267 86.5523 76.0316L74.7018 78.1622C73.926 78.3016 73.2296 77.6668 73.2967 76.8815L77.9992 21.9311Z" fill="white"/>
<path d="M76.0792 20.8464C76.6049 20.7404 77.0835 21.1726 77.0316 21.7065L74.4578 48.177L63.8883 25.8335C63.3339 24.6614 64.0267 23.28 65.2977 23.0234L76.0792 20.8464Z" fill="white"/>
<path d="M19.9716 62.7411C20.2181 61.9925 21.1082 61.6819 21.7669 62.1146L67.8585 92.4002C68.3995 92.7557 68.315 93.5732 67.7127 93.8104L37.0898 105.861C36.1949 106.213 35.1763 105.877 34.6665 105.062L16.4094 75.8602C16.0952 75.3574 16.021 74.7411 16.2063 74.1779L19.9716 62.7411Z" fill="white"/>
<path d="M71.1416 78.1325C72.4362 78.2027 73.3214 79.4691 72.9423 80.709L69.726 91.2274C69.5691 91.7403 68.9611 91.956 68.5163 91.6562L46.4601 76.7957L71.1416 78.1325Z" fill="white"/>
</svg>
