<svg width="874" height="223" viewBox="0 0 874 223" fill="none" xmlns="http://www.w3.org/2000/svg">
<path d="M120.852 39.1215L17.7907 90.9055C17.0383 91.2835 16.1721 90.6566 16.2969 89.8243L26.6433 20.7983C26.8287 19.5618 27.8699 18.6332 29.1202 18.5892L101.6 16.0427C102.371 16.0157 103.114 16.3325 103.628 16.9074L121.314 36.693C121.997 37.4572 121.768 38.6611 120.852 39.1215Z" fill="white"/>
<path d="M68.4454 68.4123L18.742 92.6706C18.115 92.9767 17.9623 93.8013 18.4382 94.3113L35.6636 112.773C36.814 114.006 38.817 113.833 39.7382 112.421L68.4454 68.4123Z" fill="white"/>
<path fill-rule="evenodd" clip-rule="evenodd" d="M153.86 33.2088C153.932 32.3703 154.92 31.9612 155.564 32.5033L208.984 77.4635C209.941 78.2689 210.187 79.6418 209.57 80.7292L173.78 143.768C173.4 144.438 172.74 144.904 171.981 145.041L145.852 149.735C144.843 149.917 143.937 149.091 144.024 148.07L153.86 33.2088Z" fill="white"/>
<path fill-rule="evenodd" clip-rule="evenodd" d="M150.618 31.9766C151.302 31.8386 151.925 32.4002 151.857 33.0942L146.504 88.1141L124.025 40.6251C123.304 39.1013 124.205 37.3054 125.859 36.9717L150.618 31.9766Z" fill="white"/>
<path fill-rule="evenodd" clip-rule="evenodd" d="M35.2023 116.833C35.5229 115.859 36.6804 115.456 37.5373 116.018L133.943 179.323C134.647 179.785 134.536 180.849 133.753 181.157L68.7633 206.715C67.5992 207.173 66.2739 206.736 65.6107 205.676L27.164 144.22C26.7552 143.566 26.6586 142.765 26.8998 142.033L35.2023 116.833Z" fill="white"/>
<path fill-rule="evenodd" clip-rule="evenodd" d="M141.613 149.57C143.298 149.662 144.45 151.309 143.957 152.921L136.571 177.06C136.367 177.727 135.575 178.007 134.997 177.617L89.1235 146.729L141.613 149.57Z" fill="white"/>
<path d="M251.251 115.893V54.4799H284.78V65.8558H262.969V77.0607H284.78V88.18H262.969V104.431H284.78V115.893H251.251ZM307.323 54.4799V104.773H324.344V115.893H295.605V54.4799H307.323ZM362.637 98.1874C364.063 100.867 365.603 102.892 367.256 104.26C368.91 105.572 370.763 106.228 372.816 106.228C374.812 106.228 376.494 105.686 377.862 104.602C379.231 103.462 379.915 102.093 379.915 100.497C379.915 99.6415 379.801 98.9002 379.573 98.273C379.345 97.5887 378.974 96.9329 378.461 96.3057C377.948 95.6214 377.292 94.9372 376.494 94.2529C375.753 93.5116 374.869 92.7133 373.842 91.858C370.991 89.463 368.425 87.2962 366.144 85.3574C363.92 83.3617 362.039 81.4514 360.499 79.6267C358.96 77.802 357.762 76.0058 356.907 74.2381C356.108 72.4134 355.709 70.4746 355.709 68.4218C355.709 66.255 356.137 64.2307 356.992 62.349C357.905 60.4672 359.131 58.8421 360.67 57.4736C362.21 56.048 364.006 54.9361 366.059 54.1378C368.112 53.3395 370.278 52.9403 372.559 52.9403C376.437 52.9403 379.744 53.8812 382.481 55.7629C385.275 57.5876 387.898 59.9255 390.35 62.7766L381.882 69.9614C380.286 68.1367 378.718 66.7112 377.178 65.6848C375.639 64.6584 374.042 64.1452 372.388 64.1452C370.849 64.1452 369.594 64.5443 368.625 65.3426C367.655 66.1409 367.171 67.1673 367.171 68.4218C367.171 69.1061 367.313 69.7619 367.598 70.3891C367.941 71.0163 368.482 71.7576 369.224 72.613C370.022 73.4113 371.048 74.3521 372.303 75.4356C373.614 76.462 375.239 77.745 377.178 79.2846C379.288 80.9952 381.198 82.6204 382.909 84.16C384.677 85.6425 386.188 87.1821 387.442 88.7788C388.697 90.3754 389.666 92.0861 390.35 93.9108C391.035 95.6785 391.377 97.7027 391.377 99.9836C391.377 102.55 390.92 104.916 390.008 107.083C389.096 109.193 387.813 111.017 386.159 112.557C384.505 114.097 382.51 115.294 380.172 116.149C377.891 117.005 375.353 117.432 372.559 117.432C368.055 117.432 364.206 116.349 361.012 114.182C357.819 111.958 355.082 108.594 352.801 104.089L362.637 98.1874ZM401.686 115.893V54.4799H435.215V65.8558H413.404V77.0607H435.215V88.18H413.404V104.431H435.215V115.893H401.686ZM443.925 115.893L454.531 54.4799H465.992L480.191 97.4176C480.305 97.0185 480.419 96.6193 480.533 96.2202C480.704 95.821 480.847 95.4219 480.961 95.0227L494.561 54.4799H505.851L516.2 115.893H504.91L498.324 76.9752C498.153 77.4884 497.982 78.0016 497.811 78.5148C497.64 78.9709 497.469 79.4556 497.298 79.9688L485.237 115.893H474.973L462.058 76.9752C461.944 77.4884 461.858 78.0016 461.801 78.5148C461.744 78.9709 461.659 79.4556 461.545 79.9688L455.301 115.893H443.925ZM525.643 54.4799H537.617C540.753 54.4799 543.662 54.765 546.342 55.3352C549.079 55.9055 551.417 56.8178 553.355 58.0723C555.351 59.3268 556.891 60.9804 557.974 63.0332C559.115 65.029 559.685 67.4525 559.685 70.3036C559.685 72.7555 559.143 74.9224 558.06 76.8041C556.976 78.6858 555.38 80.4535 553.27 82.1072C556.862 83.8178 559.542 85.9562 561.31 88.5222C563.135 91.0311 564.047 94.1674 564.047 97.9308C564.047 100.668 563.534 103.148 562.507 105.372C561.538 107.596 560.169 109.478 558.402 111.017C556.634 112.557 554.496 113.754 551.987 114.61C549.535 115.465 546.855 115.893 543.947 115.893H525.643V54.4799ZM537.361 88.9498V104.773H541.295C545.002 104.773 547.796 104.232 549.677 103.148C551.616 102.008 552.586 100.126 552.586 97.5032C552.586 94.7661 551.559 92.6563 549.506 91.1737C547.454 89.6911 544.374 88.9498 540.269 88.9498H537.361ZM537.361 65.5992V78.5148H539.927C542.664 78.5148 544.716 77.9445 546.085 76.8041C547.511 75.6637 548.223 74.01 548.223 71.8432C548.223 69.8474 547.568 68.3078 546.256 67.2244C544.945 66.141 542.977 65.5992 540.354 65.5992H537.361ZM590.997 54.4799C597.44 54.4799 602.515 55.934 606.222 58.8421C609.985 61.7502 611.867 66.2265 611.867 72.2708C611.867 80.311 607.932 85.7566 600.063 88.6077L614.604 115.893H601.859L588.089 89.8907H586.977V115.893H575.259V54.4799H590.997ZM586.977 78.5148H592.365C597.725 78.5148 600.405 76.4049 600.405 72.1853C600.405 68.0227 597.611 65.9414 592.023 65.9414H586.977V78.5148ZM640.802 54.4799H652.605L676.298 115.893H664.152L659.448 103.234H633.959L629.255 115.893H617.109L640.802 54.4799ZM638.321 91.7724H655.171L646.704 69.1916L638.321 91.7724ZM683.345 54.4799H698.142C709.375 54.4799 717.843 57.0174 723.545 62.0924C729.247 67.1673 732.099 74.8368 732.099 85.1008C732.099 90.632 731.329 95.3648 729.789 99.2994C728.307 103.177 726.111 106.37 723.203 108.879C720.352 111.331 716.817 113.127 712.597 114.268C708.434 115.351 703.673 115.893 698.313 115.893H683.345V54.4799ZM695.063 65.9414V104.431H700.366C706.638 104.431 711.514 102.892 714.992 99.8126C718.527 96.6763 720.295 91.6869 720.295 84.8442C720.295 78.6288 718.385 73.9245 714.564 70.7312C710.744 67.538 705.555 65.9414 698.997 65.9414H695.063ZM740.074 85.1008C740.074 80.5391 740.929 76.3194 742.64 72.4419C744.351 68.5074 746.66 65.1145 749.568 62.2634C752.476 59.3553 755.869 57.0744 759.747 55.4208C763.624 53.7671 767.73 52.9403 772.063 52.9403C776.283 52.9403 780.303 53.7671 784.124 55.4208C788.001 57.0174 791.394 59.2698 794.302 62.1779C797.267 65.029 799.605 68.4503 801.316 72.4419C803.083 76.3764 803.967 80.6816 803.967 85.3574C803.967 89.8622 803.14 94.0818 801.487 98.0164C799.833 101.894 797.581 105.258 794.73 108.109C791.879 110.96 788.514 113.213 784.637 114.866C780.759 116.52 776.625 117.347 772.234 117.347C767.673 117.347 763.424 116.52 759.49 114.866C755.612 113.156 752.22 110.846 749.311 107.938C746.46 105.03 744.208 101.609 742.554 97.6742C740.901 93.7397 740.074 89.5486 740.074 85.1008ZM751.877 85.3574C751.877 88.4937 752.419 91.3448 753.503 93.9108C754.586 96.4197 756.04 98.5866 757.865 100.411C759.747 102.236 761.913 103.662 764.365 104.688C766.817 105.657 769.412 106.142 772.149 106.142C774.943 106.142 777.537 105.6 779.932 104.517C782.384 103.433 784.494 101.951 786.262 100.069C788.087 98.1874 789.512 95.9921 790.539 93.4831C791.622 90.9171 792.164 88.18 792.164 85.2719C792.164 82.4208 791.65 79.7407 790.624 77.2318C789.655 74.6658 788.258 72.4134 786.433 70.4746C784.665 68.5359 782.527 66.9963 780.018 65.8558C777.566 64.7154 774.886 64.1452 771.978 64.1452C769.241 64.1452 766.646 64.6584 764.194 65.6848C761.742 66.7112 759.604 68.1652 757.779 70.047C755.955 71.8717 754.5 74.0955 753.417 76.7186C752.391 79.2846 751.877 82.1642 751.877 85.3574ZM830.64 54.4799C837.084 54.4799 842.159 55.934 845.865 58.8421C849.629 61.7502 851.51 66.2265 851.51 72.2708C851.51 80.311 847.576 85.7566 839.707 88.6077L854.247 115.893H841.503L827.732 89.8907H826.62V115.893H814.902V54.4799H830.64ZM826.62 78.5148H832.009C837.369 78.5148 840.049 76.4049 840.049 72.1853C840.049 68.0227 837.255 65.9414 831.667 65.9414H826.62V78.5148Z" fill="white"/>
<path d="M246.864 147.081C246.864 144.579 247.317 142.265 248.224 140.139C249.131 138.013 250.397 136.168 252.023 134.604C253.649 133.041 255.557 131.821 257.746 130.946C259.966 130.039 262.389 129.585 265.016 129.585C268.08 129.585 270.848 130.179 273.318 131.368C275.82 132.556 277.899 134.323 279.556 136.668L276.883 138.685C275.413 136.715 273.662 135.261 271.63 134.323C269.628 133.353 267.439 132.869 265.063 132.869C263.062 132.869 261.17 133.228 259.387 133.947C257.636 134.635 256.089 135.62 254.744 136.902C253.399 138.185 252.336 139.717 251.554 141.499C250.773 143.25 250.382 145.205 250.382 147.362C250.382 149.457 250.757 151.396 251.508 153.178C252.258 154.929 253.29 156.446 254.603 157.728C255.948 159.01 257.527 160.011 259.341 160.73C261.154 161.449 263.124 161.809 265.251 161.809C269.941 161.809 273.881 159.948 277.071 156.227L279.744 158.244C277.993 160.433 275.867 162.09 273.365 163.216C270.895 164.342 268.112 164.904 265.016 164.904C262.202 164.904 259.669 164.451 257.417 163.544C255.197 162.606 253.29 161.34 251.695 159.745C250.132 158.119 248.928 156.227 248.083 154.07C247.27 151.881 246.864 149.551 246.864 147.081ZM287.398 147.409C287.398 144.908 287.851 142.578 288.758 140.42C289.665 138.231 290.9 136.34 292.464 134.745C294.058 133.15 295.919 131.899 298.045 130.992C300.172 130.054 302.454 129.585 304.893 129.585C307.457 129.585 309.834 130.039 312.023 130.946C314.212 131.852 316.104 133.103 317.698 134.698C319.324 136.261 320.591 138.122 321.498 140.28C322.436 142.437 322.905 144.767 322.905 147.268C322.905 149.739 322.451 152.053 321.545 154.21C320.638 156.368 319.387 158.244 317.792 159.839C316.197 161.434 314.321 162.684 312.164 163.591C310.006 164.498 307.676 164.951 305.175 164.951C302.579 164.951 300.187 164.482 297.998 163.544C295.841 162.606 293.965 161.34 292.37 159.745C290.806 158.119 289.587 156.243 288.711 154.116C287.836 151.99 287.398 149.754 287.398 147.409ZM290.916 147.409C290.916 149.473 291.291 151.38 292.042 153.131C292.823 154.883 293.855 156.399 295.137 157.681C296.451 158.932 297.951 159.917 299.64 160.636C301.36 161.324 303.174 161.668 305.081 161.668C307.051 161.668 308.896 161.308 310.616 160.589C312.367 159.87 313.883 158.885 315.165 157.634C316.479 156.352 317.511 154.82 318.261 153.038C319.012 151.255 319.387 149.317 319.387 147.221C319.387 145.095 318.98 143.156 318.167 141.405C317.386 139.623 316.338 138.106 315.025 136.856C313.711 135.573 312.195 134.588 310.475 133.901C308.755 133.213 306.957 132.869 305.081 132.869C303.236 132.869 301.454 133.228 299.734 133.947C298.045 134.635 296.544 135.62 295.231 136.902C293.918 138.185 292.87 139.717 292.088 141.499C291.307 143.281 290.916 145.251 290.916 147.409ZM335.738 130.43H336.301L349.997 158.056L363.553 130.43H364.116L368.9 164.107H365.616L362.521 141.218C362.49 140.999 362.458 140.796 362.427 140.608C362.396 140.42 362.364 140.217 362.333 139.998L350.419 164.107H349.575L338.083 141.124C337.99 140.905 337.88 140.702 337.755 140.514C337.661 140.295 337.568 140.076 337.474 139.857C337.442 140.108 337.411 140.342 337.38 140.561C337.349 140.78 337.317 141.014 337.286 141.265L334.237 164.107H330.954L335.738 130.43ZM378.535 130.43H381.912V152.991C381.912 154.21 382.068 155.352 382.381 156.415C382.694 157.478 383.178 158.4 383.835 159.182C384.492 159.964 385.305 160.574 386.274 161.011C387.243 161.449 388.385 161.668 389.698 161.668C391.011 161.668 392.153 161.449 393.122 161.011C394.123 160.542 394.936 159.933 395.561 159.182C396.218 158.4 396.702 157.494 397.015 156.462C397.328 155.398 397.484 154.288 397.484 153.131V130.43H400.861V152.334C400.861 156.337 399.861 159.448 397.859 161.668C395.889 163.857 393.169 164.951 389.698 164.951C386.227 164.951 383.491 163.857 381.49 161.668C379.52 159.448 378.535 156.337 378.535 152.334V130.43ZM412.882 164.107V130.43H413.585L435.912 156.227V130.43H439.289V164.107H438.538L416.259 138.638V164.107H412.882ZM451.171 130.43H454.548V164.107H451.171V130.43ZM466.421 130.43H474.723C477.881 130.43 480.711 130.789 483.213 131.508C485.714 132.228 487.825 133.306 489.545 134.745C491.264 136.183 492.578 137.981 493.485 140.139C494.391 142.296 494.845 144.798 494.845 147.644C494.845 152.928 493.344 156.993 490.342 159.839C487.34 162.684 482.65 164.107 476.271 164.107H466.421V130.43ZM469.798 133.713V160.824H476.271C481.055 160.824 484.76 159.792 487.387 157.728C490.014 155.633 491.327 152.287 491.327 147.691C491.327 145.189 490.936 143.063 490.154 141.311C489.373 139.529 488.247 138.075 486.777 136.949C485.339 135.824 483.603 135.011 481.571 134.51C479.538 133.979 477.256 133.713 474.723 133.713H469.798ZM515.295 130.43H516.092L531.711 164.107H528.193L523.034 153.038H508.259L503.099 164.107H499.582L515.295 130.43ZM509.76 149.848H521.533L515.67 137.231L509.76 149.848ZM539.793 130.43H548.096C551.254 130.43 554.084 130.789 556.585 131.508C559.087 132.228 561.198 133.306 562.917 134.745C564.637 136.183 565.951 137.981 566.857 140.139C567.764 142.296 568.218 144.798 568.218 147.644C568.218 152.928 566.717 156.993 563.715 159.839C560.713 162.684 556.022 164.107 549.643 164.107H539.793V130.43ZM543.171 133.713V160.824H549.643C554.428 160.824 558.133 159.792 560.76 157.728C563.386 155.633 564.7 152.287 564.7 147.691C564.7 145.189 564.309 143.063 563.527 141.311C562.745 139.529 561.62 138.075 560.15 136.949C558.712 135.824 556.976 135.011 554.944 134.51C552.911 133.979 550.628 133.713 548.096 133.713H543.171ZM593.985 147.081C593.985 144.579 594.439 142.265 595.346 140.139C596.252 138.013 597.519 136.168 599.145 134.604C600.771 133.041 602.678 131.821 604.867 130.946C607.087 130.039 609.511 129.585 612.137 129.585C615.202 129.585 617.969 130.179 620.44 131.368C622.941 132.556 625.021 134.323 626.678 136.668L624.004 138.685C622.535 136.715 620.784 135.261 618.751 134.323C616.75 133.353 614.561 132.869 612.184 132.869C610.183 132.869 608.291 133.228 606.509 133.947C604.758 134.635 603.21 135.62 601.865 136.902C600.521 138.185 599.458 139.717 598.676 141.499C597.894 143.25 597.503 145.205 597.503 147.362C597.503 149.457 597.879 151.396 598.629 153.178C599.379 154.929 600.411 156.446 601.725 157.728C603.069 159.01 604.648 160.011 606.462 160.73C608.276 161.449 610.246 161.809 612.372 161.809C617.062 161.809 621.002 159.948 624.192 156.227L626.866 158.244C625.114 160.433 622.988 162.09 620.487 163.216C618.016 164.342 615.233 164.904 612.137 164.904C609.323 164.904 606.79 164.451 604.539 163.544C602.319 162.606 600.411 161.34 598.817 159.745C597.253 158.119 596.049 156.227 595.205 154.07C594.392 151.881 593.985 149.551 593.985 147.081ZM647.009 130.43C648.979 130.43 650.683 130.649 652.121 131.086C653.591 131.493 654.795 132.087 655.733 132.869C656.671 133.65 657.359 134.604 657.797 135.73C658.266 136.824 658.5 138.044 658.5 139.388C658.5 140.921 658.219 142.25 657.656 143.375C657.093 144.501 656.296 145.439 655.264 146.19C654.232 146.94 652.997 147.503 651.559 147.878C650.151 148.253 648.572 148.441 646.821 148.441L658.97 164.107H654.795L642.881 148.441H640.771V164.107H637.393V130.43H647.009ZM640.771 145.158H646.821C649.323 145.158 651.308 144.704 652.778 143.797C654.248 142.891 654.983 141.421 654.983 139.388C654.983 137.731 654.389 136.371 653.2 135.308C652.043 134.245 650.198 133.713 647.666 133.713H640.771V145.158ZM668.904 130.43H672.281V164.107H668.904V130.43ZM681.245 157.822L684.106 156.086C686.139 159.808 688.484 161.668 691.142 161.668C692.018 161.668 692.831 161.527 693.581 161.246C694.363 160.933 695.035 160.527 695.598 160.026C696.161 159.495 696.599 158.885 696.911 158.197C697.224 157.478 697.38 156.727 697.38 155.946C697.38 155.164 697.208 154.429 696.864 153.741C696.52 153.053 695.989 152.334 695.27 151.584C694.55 150.802 693.612 149.942 692.455 149.004C691.298 148.034 689.907 146.893 688.281 145.58C687.437 144.923 686.702 144.298 686.076 143.704C685.482 143.109 684.982 142.515 684.575 141.921C684.2 141.296 683.903 140.639 683.684 139.951C683.497 139.232 683.403 138.403 683.403 137.465C683.403 136.308 683.606 135.245 684.013 134.276C684.45 133.306 685.029 132.478 685.748 131.79C686.499 131.102 687.374 130.57 688.375 130.195C689.375 129.789 690.438 129.585 691.564 129.585C692.596 129.585 693.534 129.742 694.378 130.054C695.223 130.336 695.989 130.727 696.677 131.227C697.396 131.696 698.053 132.275 698.647 132.962C699.241 133.619 699.819 134.323 700.382 135.073L697.662 137.184C696.755 135.996 695.833 135.011 694.894 134.229C693.988 133.447 692.846 133.056 691.47 133.056C690.751 133.056 690.11 133.181 689.547 133.432C688.984 133.65 688.5 133.963 688.093 134.37C687.718 134.776 687.421 135.23 687.202 135.73C687.014 136.23 686.921 136.762 686.921 137.325C686.921 138.45 687.249 139.482 687.906 140.42C688.562 141.327 689.453 142.187 690.579 143C692.08 144.094 693.456 145.142 694.707 146.143C695.989 147.112 697.083 148.113 697.99 149.145C698.928 150.145 699.647 151.193 700.148 152.287C700.648 153.382 700.898 154.585 700.898 155.899C700.898 157.087 700.664 158.228 700.195 159.323C699.726 160.417 699.069 161.387 698.225 162.231C697.38 163.044 696.38 163.701 695.223 164.201C694.066 164.701 692.799 164.951 691.423 164.951C689.078 164.951 687.108 164.342 685.514 163.122C683.919 161.871 682.496 160.105 681.245 157.822ZM707.432 130.43H725.913V133.713H718.408V164.107H715.031V133.713H707.432V130.43ZM734.486 130.43H737.863V164.107H734.486V130.43ZM761.602 130.43H762.4L778.019 164.107H774.501L769.342 153.038H754.567L749.407 164.107H745.889L761.602 130.43ZM756.068 149.848H767.841L761.978 137.231L756.068 149.848ZM786.101 164.107V130.43H786.805L809.131 156.227V130.43H812.508V164.107H811.758L789.478 138.638V164.107H786.101ZM836.257 130.43H837.055L852.674 164.107H849.156L843.997 153.038H829.222L824.062 164.107H820.544L836.257 130.43ZM830.723 149.848H842.496L836.633 137.231L830.723 149.848Z" fill="white"/>
</svg>
